<svg xmlns:dc="http://purl.org/dc/elements/1.1/" xmlns:cc="http://creativecommons.org/ns#" xmlns:rdf="http://www.w3.org/1999/02/22-rdf-syntax-ns#" xmlns:svg="http://www.w3.org/2000/svg" xmlns="http://www.w3.org/2000/svg" xmlns:xlink="http://www.w3.org/1999/xlink" id="svg209806" viewBox="0 0 1024 768" height="768px" width="1024px" version="1.1">
  <defs id="defs209810"></defs>
  <linearGradient spreadMethod="pad" y2="30%" x2="-10%" y1="120%" x1="30%" id="3d_gradient2-logo-7c89d03d-9ac2-4a2c-a820-e549e10b4598">
    <stop id="stop209787" stop-opacity="1" stop-color="#ffffff" offset="0%"></stop>
    <stop id="stop209789" stop-opacity="1" stop-color="#000000" offset="100%"></stop>
  </linearGradient>
  <linearGradient gradientTransform="rotate(-30)" spreadMethod="pad" y2="30%" x2="-10%" y1="120%" x1="30%" id="3d_gradient3-logo-7c89d03d-9ac2-4a2c-a820-e549e10b4598">
    <stop id="stop209792" stop-opacity="1" stop-color="#ffffff" offset="0%"></stop>
    <stop id="stop209794" stop-opacity="1" stop-color="#cccccc" offset="50%"></stop>
    <stop id="stop209796" stop-opacity="1" stop-color="#000000" offset="100%"></stop>
  </linearGradient>
  <g id="logo-group">
    <image xlink:href="" id="container" x="272" y="144" width="480" height="480" transform="translate(0 0)" style="display: none;"></image>
    <g id="logo-center" transform="translate(0 0)">
      <image xlink:href="" id="icon_container" x="0" y="0" style="display: none;"></image>
      <g id="slogan" style="font-style:normal;font-weight:300;font-size:32px;line-height:1;font-family:'Frank Ruhl Libre';font-variant-ligatures:none;text-align:center;text-anchor:middle" transform="translate(0 0)"></g>
      <g id="title" style="font-style:normal;font-weight:400;font-size:72px;line-height:1;font-family:'Blackout 2AM';font-variant-ligatures:none;text-align:center;text-anchor:middle" transform="translate(0 0)">
        <path id="path209815" style="font-style:normal;font-weight:400;font-size:72px;line-height:1;font-family:'Blackout 2AM';font-variant-ligatures:none;text-align:center;text-anchor:middle" d="M 432.40119,-21.384 443.27319,0 h -13.896 l -7.2,-17.424 h -0.144 V 0 h -12.096 v -53.568 h 16.272 0.072 c 3.024,0 5.616,0.504 7.632,1.44 2.016,0.936 3.672,2.16 4.896,3.744 1.224,1.584 2.088,3.384 2.664,5.472 0.504,2.088 0.792,4.248 0.792,6.552 0,2.448 -0.432,4.536 -1.224,6.408 -0.792,1.872 -1.728,3.456 -2.808,4.752 -1.08,1.296 -2.16,2.232 -3.24,2.88 -1.152,0.648 -2.016,0.936 -2.592,0.936 z m -27.072,-42.768 V 11.16 h 42.84 v -75.312 z" stroke-width="0" stroke-linejoin="miter" stroke-miterlimit="2" fill="#cf7121" stroke="#cf7121" transform="translate(0 406.84) translate(298.38837999999987 -14.152000000000001) scale(2) translate(-405.32919 64.152)"></path>
        <path id="path209817" style="font-style:normal;font-weight:400;font-size:72px;line-height:1;font-family:'Blackout 2AM';font-variant-ligatures:none;text-align:center;text-anchor:middle" d="m 484.67544,-53.568 v 12.096 h -20.736 v 8.64 h 15.264 v 12.096 h -15.264 v 8.64 h 20.736 V 0 h -32.832 v -53.568 z m -37.44,-10.584 V 11.16 h 42.12 v -75.312 z" stroke-width="0" stroke-linejoin="miter" stroke-miterlimit="2" fill="#d47c27" stroke="#d47c27" transform="translate(0 406.84) translate(382.2008799999999 -14.152000000000001) scale(2) translate(-447.23544 64.152)"></path>
        <path id="path209819" style="font-style:normal;font-weight:400;font-size:72px;line-height:1;font-family:'Blackout 2AM';font-variant-ligatures:none;text-align:center;text-anchor:middle" d="m 505.72194,-53.568 v 41.472 h 14.328 V 0 h -26.424 v -53.568 z m -17.424,-10.584 V 11.16 h 36.36 v -75.312 z" stroke-width="0" stroke-linejoin="miter" stroke-miterlimit="2" fill="#d8862d" stroke="#d8862d" transform="translate(0 406.84) translate(464.3258799999999 -14.152000000000001) scale(2) translate(-488.29794 64.152)"></path>
        <path id="path209821" style="font-style:normal;font-weight:400;font-size:72px;line-height:1;font-family:'Blackout 2AM';font-variant-ligatures:none;text-align:center;text-anchor:middle" d="m 568.08744,-33.84 v 12.528 c 0,2.592 -0.432,5.256 -1.224,7.92 -0.792,2.664 -2.16,4.968 -4.032,6.984 -2.016,2.16 -4.248,3.744 -6.768,4.824 -2.52,1.152 -5.184,1.656 -7.992,1.656 h -0.072 c -2.808,0 -5.472,-0.504 -7.992,-1.656 -2.52,-1.08 -4.752,-2.664 -6.768,-4.752 -1.872,-2.016 -3.24,-4.248 -4.032,-6.84 -0.792,-2.52 -1.224,-5.256 -1.224,-8.136 V -33.84 c 0,-2.304 0.432,-4.608 1.368,-6.984 0.864,-2.376 2.16,-4.464 3.888,-6.336 2.016,-2.016 4.248,-3.6 6.768,-4.752 2.448,-1.08 5.112,-1.656 7.992,-1.656 h 0.072 c 2.808,0 5.472,0.576 7.992,1.656 2.52,1.152 4.752,2.736 6.768,4.752 1.728,1.872 3.024,3.888 3.888,6.192 0.864,2.304 1.296,4.68 1.368,7.128 z m -44.352,-30.312 V 11.16 h 48.24 v -75.312 z" stroke-width="0" stroke-linejoin="miter" stroke-miterlimit="2" fill="#dd9132" stroke="#dd9132" transform="translate(0 406.84) translate(535.2008800000001 -14.152000000000001) scale(2) translate(-523.73544 64.152)"></path>
        <path id="path209823" style="font-style:normal;font-weight:400;font-size:72px;line-height:1;font-family:'Blackout 2AM';font-variant-ligatures:none;text-align:center;text-anchor:middle" d="m 594.74881,-11.88 c 2.016,0.144 3.744,-0.36 5.112,-1.584 1.368,-1.152 2.448,-2.592 3.168,-4.32 l 10.44,5.832 c -0.432,0.864 -1.08,2.016 -1.872,3.312 -0.792,1.368 -1.872,2.664 -3.312,3.96 -1.44,1.296 -3.312,2.448 -5.544,3.384 -2.232,0.936 -4.968,1.368 -8.208,1.368 h -0.072 c -3.672,0 -6.768,-0.576 -9.216,-1.728 -2.448,-1.152 -4.464,-2.664 -6.048,-4.608 -1.584,-1.944 -2.664,-4.176 -3.384,-6.768 -0.72,-2.592 -1.152,-5.256 -1.296,-8.064 v -11.088 c 0,-2.592 0.432,-5.184 1.296,-7.776 0.864,-2.592 2.088,-4.896 3.744,-6.912 1.656,-2.016 3.744,-3.6 6.264,-4.824 2.448,-1.224 5.4,-1.872 8.712,-1.872 h 0.072 c 2.88,0 5.4,0.432 7.56,1.224 2.088,0.864 3.888,1.872 5.4,3.168 1.512,1.296 2.736,2.808 3.672,4.392 0.936,1.656 1.656,3.312 2.232,4.896 l -10.44,5.832 c -0.288,-0.864 -0.72,-1.728 -1.224,-2.664 -0.504,-0.864 -1.08,-1.728 -1.8,-2.448 -0.72,-0.72 -1.584,-1.296 -2.448,-1.728 -0.936,-0.432 -1.872,-0.576 -2.88,-0.576 -2.448,0.216 -4.464,1.224 -5.904,2.952 -1.44,1.728 -2.16,3.96 -2.16,6.552 v 10.44 c 0,2.664 0.72,4.896 2.232,6.696 1.44,1.8 3.456,2.808 5.904,2.952 z m -23.976,-52.272 V 11.16 h 48.168 v -75.312 z" stroke-width="0" stroke-linejoin="miter" stroke-miterlimit="2" fill="#e19b38" stroke="#e19b38" transform="translate(0 406.84) translate(629.2756200000001 -14.152000000000001) scale(2) translate(-570.77281 64.152)"></path>
      </g>
    </g>
  </g>
</svg>
